<svg xmlns="http://www.w3.org/2000/svg" xmlns:xlink="http://www.w3.org/1999/xlink" width="1000" zoomAndPan="magnify" viewBox="0 0 750 749.999995" height="1000" preserveAspectRatio="xMidYMid meet" version="1.0"><rect x="-75" width="900" fill="#ffffff" y="-74.999999" height="899.999994" fill-opacity="1"/><rect x="-75" width="900" fill="#ffffff" y="-74.999999" height="899.999994" fill-opacity="1"/><path fill="#000000" d="M 313.453125 97.058594 C 367.039062 97.011719 419.164062 118.605469 456.851562 156.617188 C 461.777344 161.597656 469.832031 161.621094 474.796875 156.691406 C 479.769531 151.761719 479.808594 143.730469 474.871094 138.75 C 458.648438 122.394531 440.21875 108.769531 420.210938 98.3125 C 387.699219 80.890625 350.78125 71.683594 313.453125 71.683594 C 47.457031 78.351562 -0.488281 442.46875 251.292969 519.601562 C 391.394531 562.226562 544.117188 449.914062 541.875 300.050781 C 541.878906 262.734375 532.671875 225.824219 515.246094 193.316406 C 511.941406 187.15625 504.246094 184.828125 498.070312 188.125 C 491.890625 191.445312 489.566406 199.125 492.875 205.308594 C 508.332031 234.140625 516.496094 266.898438 516.496094 300.050781 C 516.496094 363.988281 486.707031 421.027344 440.355469 458.261719 L 440.355469 249.304688 C 440.355469 242.292969 434.671875 236.617188 427.664062 236.617188 L 370.558594 236.617188 C 363.550781 236.617188 357.867188 242.292969 357.867188 249.304688 L 357.867188 278.097656 L 313.453125 278.097656 C 306.445312 278.097656 300.761719 283.773438 300.761719 290.785156 L 300.761719 319.714844 L 256.34375 319.714844 C 249.335938 319.714844 243.65625 325.390625 243.65625 332.402344 C 243.65625 332.402344 243.65625 361.207031 243.65625 361.207031 L 199.238281 361.207031 C 192.230469 361.207031 186.546875 366.882812 186.546875 373.894531 C 186.546875 373.894531 186.546875 458.261719 186.546875 458.261719 C 38.484375 339.640625 121.367188 98.011719 313.453125 97.058594 Z M 383.25 261.992188 L 414.976562 261.992188 L 414.976562 475.578125 C 404.910156 481.417969 394.304688 486.359375 383.25 490.425781 Z M 326.140625 303.472656 L 357.867188 303.472656 L 357.867188 498 C 347.566406 500.308594 336.964844 501.730469 326.140625 502.402344 Z M 269.035156 345.089844 L 300.761719 345.089844 L 300.761719 502.402344 C 289.941406 501.730469 279.335938 500.308594 269.035156 498 Z M 211.929688 386.582031 L 243.65625 386.582031 L 243.65625 490.425781 C 232.597656 486.359375 221.992188 481.417969 211.929688 475.578125 Z M 211.929688 386.582031 " fill-opacity="1" fill-rule="nonzero"/><path fill="#000000" d="M 543.355469 458.164062 C 574.402344 413.183594 592.640625 358.71875 592.640625 300.050781 C 594.414062 147.625 465.648438 19.390625 313.449219 20.9375 C 159.507812 20.9375 34.265625 146.148438 34.265625 300.050781 C 34.511719 316.757812 59.476562 316.59375 59.644531 300.050781 C 57.46875 138.191406 216.929688 13.457031 373.410156 53.4375 C 662.78125 129.695312 612.433594 547.457031 313.449219 553.792969 C 195.847656 553.792969 94.40625 474.101562 66.769531 359.992188 C 65.128906 353.179688 58.246094 348.953125 51.453125 350.652344 C 44.644531 352.300781 40.453125 359.152344 42.109375 365.964844 C 72.507812 491.5 184.089844 579.167969 313.453125 579.167969 C 372.128906 579.167969 426.609375 560.933594 471.601562 529.898438 C 471.601562 529.898438 658.1875 716.433594 658.308594 716.558594 C 678.089844 736.332031 710.285156 736.332031 730.066406 716.558594 C 749.84375 696.785156 749.84375 664.59375 730.066406 644.820312 C 730.066406 644.820312 543.335938 458.226562 543.355469 458.164062 Z M 527.875 478.570312 L 576.214844 526.898438 L 540.355469 562.75 L 492.011719 514.421875 C 505.019531 503.574219 517.027344 491.574219 527.875 478.570312 Z M 712.121094 698.617188 C 702.230469 708.503906 686.144531 708.503906 676.253906 698.617188 L 558.296875 580.691406 L 594.164062 544.835938 L 712.121094 662.761719 C 722.003906 672.648438 722.003906 688.730469 712.121094 698.617188 Z M 712.121094 698.617188 " fill-opacity="1" fill-rule="nonzero"/></svg>