<svg xmlns="http://www.w3.org/2000/svg" xmlns:xlink="http://www.w3.org/1999/xlink" width="1000" zoomAndPan="magnify" viewBox="0 0 750 749.999995" height="1000" preserveAspectRatio="xMidYMid meet" version="1.0"><defs><clipPath id="265e15ee55"><path d="M 50.625 92 L 699.375 92 L 699.375 191 L 50.625 191 Z M 50.625 92 " clip-rule="nonzero"/></clipPath></defs><path fill="#000000" d="M 544.144531 750 L 205.855469 750 C 205.117188 750 204.382812 749.933594 203.65625 749.804688 C 202.929688 749.675781 202.21875 749.484375 201.527344 749.226562 C 200.832031 748.972656 200.167969 748.660156 199.527344 748.289062 C 198.890625 747.917969 198.289062 747.492188 197.726562 747.015625 C 197.164062 746.539062 196.644531 746.015625 196.171875 745.449219 C 195.699219 744.878906 195.28125 744.273438 194.917969 743.632812 C 194.550781 742.992188 194.246094 742.324219 193.996094 741.625 C 193.75 740.929688 193.5625 740.21875 193.441406 739.492188 L 98.730469 180 C 98.652344 179.550781 98.601562 179.097656 98.574219 178.640625 C 98.546875 178.183594 98.546875 177.726562 98.570312 177.273438 C 98.59375 176.816406 98.640625 176.363281 98.710938 175.910156 C 98.785156 175.460938 98.882812 175.011719 99 174.574219 C 99.121094 174.132812 99.265625 173.699219 99.433594 173.273438 C 99.601562 172.851562 99.792969 172.433594 100.003906 172.03125 C 100.21875 171.625 100.453125 171.234375 100.707031 170.855469 C 100.964844 170.476562 101.238281 170.113281 101.535156 169.765625 C 101.828125 169.417969 102.140625 169.085938 102.472656 168.769531 C 102.804688 168.453125 103.152344 168.160156 103.515625 167.882812 C 103.878906 167.605469 104.253906 167.347656 104.644531 167.113281 C 105.039062 166.875 105.441406 166.660156 105.855469 166.46875 C 106.269531 166.277344 106.691406 166.109375 107.125 165.960938 C 107.558594 165.816406 107.996094 165.695312 108.445312 165.59375 C 108.890625 165.496094 109.339844 165.421875 109.792969 165.375 C 110.25 165.324219 110.703125 165.300781 111.160156 165.300781 L 638.839844 165.300781 C 639.296875 165.300781 639.75 165.324219 640.207031 165.375 C 640.660156 165.421875 641.109375 165.496094 641.554688 165.59375 C 642.003906 165.695312 642.441406 165.816406 642.875 165.960938 C 643.308594 166.109375 643.730469 166.277344 644.144531 166.46875 C 644.558594 166.660156 644.964844 166.875 645.355469 167.113281 C 645.746094 167.347656 646.121094 167.605469 646.484375 167.882812 C 646.847656 168.160156 647.195312 168.453125 647.527344 168.769531 C 647.859375 169.085938 648.171875 169.417969 648.464844 169.765625 C 648.761719 170.113281 649.035156 170.476562 649.292969 170.855469 C 649.546875 171.234375 649.78125 171.625 649.996094 172.03125 C 650.207031 172.433594 650.398438 172.851562 650.566406 173.273438 C 650.734375 173.699219 650.878906 174.132812 651 174.574219 C 651.117188 175.011719 651.214844 175.460938 651.289062 175.910156 C 651.359375 176.363281 651.40625 176.816406 651.429688 177.273438 C 651.453125 177.726562 651.453125 178.183594 651.425781 178.640625 C 651.398438 179.097656 651.347656 179.550781 651.269531 180 L 556.558594 739.492188 C 556.4375 740.21875 556.25 740.929688 556.003906 741.625 C 555.753906 742.324219 555.449219 742.992188 555.082031 743.632812 C 554.71875 744.273438 554.300781 744.878906 553.828125 745.449219 C 553.355469 746.015625 552.835938 746.539062 552.273438 747.015625 C 551.710938 747.492188 551.109375 747.917969 550.472656 748.289062 C 549.832031 748.660156 549.167969 748.972656 548.472656 749.226562 C 547.78125 749.484375 547.070312 749.675781 546.34375 749.804688 C 545.617188 749.933594 544.882812 750 544.144531 750 Z M 216.507812 724.789062 L 533.492188 724.789062 L 623.949219 190.507812 L 126.050781 190.507812 Z M 216.507812 724.789062 " fill-opacity="1" fill-rule="nonzero"/><path fill="#000000" d="M 480.203125 696.269531 C 479.675781 696.261719 479.152344 696.226562 478.628906 696.160156 C 477.804688 696.054688 477 695.867188 476.214844 695.601562 C 475.429688 695.335938 474.675781 694.996094 473.957031 694.582031 C 473.238281 694.167969 472.566406 693.6875 471.941406 693.140625 C 471.316406 692.589844 470.75 691.988281 470.246094 691.328125 C 469.742188 690.671875 469.304688 689.96875 468.9375 689.222656 C 468.574219 688.480469 468.28125 687.707031 468.070312 686.902344 C 467.855469 686.101562 467.722656 685.285156 467.671875 684.457031 C 467.617188 683.628906 467.648438 682.804688 467.757812 681.980469 L 526.589844 230.042969 C 526.660156 229.195312 526.816406 228.363281 527.054688 227.546875 C 527.292969 226.730469 527.613281 225.949219 528.007812 225.195312 C 528.40625 224.445312 528.875 223.742188 529.414062 223.082031 C 529.957031 222.425781 530.554688 221.832031 531.214844 221.296875 C 531.875 220.761719 532.582031 220.296875 533.335938 219.902344 C 534.09375 219.511719 534.878906 219.199219 535.695312 218.964844 C 536.511719 218.734375 537.34375 218.582031 538.191406 218.519531 C 539.039062 218.453125 539.886719 218.476562 540.730469 218.582031 C 541.574219 218.6875 542.398438 218.878906 543.203125 219.152344 C 544.007812 219.425781 544.777344 219.773438 545.511719 220.203125 C 546.246094 220.632812 546.929688 221.128906 547.5625 221.699219 C 548.195312 222.265625 548.765625 222.890625 549.273438 223.574219 C 549.78125 224.253906 550.214844 224.980469 550.574219 225.75 C 550.933594 226.523438 551.210938 227.320312 551.410156 228.148438 C 551.609375 228.972656 551.722656 229.8125 551.75 230.660156 C 551.78125 231.511719 551.722656 232.355469 551.582031 233.191406 L 492.683594 685.289062 C 492.585938 686.039062 492.421875 686.777344 492.191406 687.5 C 491.960938 688.222656 491.667969 688.917969 491.3125 689.589844 C 490.953125 690.257812 490.542969 690.890625 490.070312 691.484375 C 489.601562 692.078125 489.082031 692.628906 488.511719 693.128906 C 487.941406 693.628906 487.332031 694.074219 486.683594 694.464844 C 486.03125 694.855469 485.351562 695.1875 484.644531 695.457031 C 483.933594 695.722656 483.207031 695.925781 482.460938 696.0625 C 481.714844 696.199219 480.964844 696.269531 480.203125 696.269531 Z M 480.203125 696.269531 " fill-opacity="1" fill-rule="nonzero"/><path fill="#000000" d="M 269.796875 696.269531 C 269.035156 696.269531 268.28125 696.199219 267.535156 696.0625 C 266.785156 695.921875 266.058594 695.71875 265.347656 695.449219 C 264.636719 695.179688 263.957031 694.847656 263.304688 694.457031 C 262.652344 694.0625 262.042969 693.613281 261.476562 693.109375 C 260.90625 692.605469 260.386719 692.058594 259.914062 691.460938 C 259.445312 690.863281 259.03125 690.226562 258.679688 689.554688 C 258.324219 688.882812 258.03125 688.183594 257.800781 687.460938 C 257.574219 686.734375 257.410156 685.996094 257.316406 685.242188 L 198.417969 233.191406 C 198.351562 232.390625 198.363281 231.589844 198.449219 230.789062 C 198.535156 229.988281 198.699219 229.203125 198.933594 228.433594 C 199.171875 227.664062 199.480469 226.925781 199.859375 226.214844 C 200.238281 225.503906 200.679688 224.835938 201.1875 224.210938 C 201.695312 223.585938 202.257812 223.011719 202.875 222.496094 C 203.492188 221.976562 204.152344 221.523438 204.855469 221.132812 C 205.558594 220.742188 206.292969 220.417969 207.058594 220.167969 C 207.824219 219.917969 208.605469 219.742188 209.402344 219.640625 C 210.203125 219.542969 211.003906 219.515625 211.808594 219.570312 C 212.609375 219.621094 213.402344 219.75 214.179688 219.957031 C 214.960938 220.160156 215.710938 220.4375 216.4375 220.785156 C 217.164062 221.132812 217.847656 221.546875 218.496094 222.027344 C 219.140625 222.507812 219.738281 223.046875 220.28125 223.640625 C 220.824219 224.234375 221.304688 224.875 221.726562 225.558594 C 222.148438 226.246094 222.5 226.964844 222.78125 227.71875 C 223.066406 228.472656 223.273438 229.25 223.410156 230.042969 L 282.304688 682.058594 C 282.417969 682.882812 282.445312 683.707031 282.394531 684.535156 C 282.339844 685.363281 282.207031 686.179688 281.992188 686.980469 C 281.78125 687.785156 281.492188 688.558594 281.125 689.300781 C 280.757812 690.046875 280.320312 690.75 279.816406 691.410156 C 279.3125 692.066406 278.746094 692.671875 278.121094 693.21875 C 277.5 693.765625 276.828125 694.246094 276.105469 694.660156 C 275.386719 695.074219 274.636719 695.414062 273.847656 695.679688 C 273.0625 695.945312 272.257812 696.132812 271.433594 696.238281 C 270.886719 696.28125 270.34375 696.292969 269.796875 696.269531 Z M 269.796875 696.269531 " fill-opacity="1" fill-rule="nonzero"/><g clip-path="url(#265e15ee55)"><path fill="#000000" d="M 650.515625 190.507812 L 99.484375 190.507812 C 97.882812 190.507812 96.28125 190.429688 94.683594 190.273438 C 93.089844 190.117188 91.503906 189.882812 89.929688 189.570312 C 88.359375 189.253906 86.804688 188.867188 85.269531 188.402344 C 83.734375 187.933594 82.226562 187.394531 80.746094 186.78125 C 79.261719 186.167969 77.816406 185.484375 76.402344 184.726562 C 74.984375 183.972656 73.613281 183.148438 72.277344 182.257812 C 70.945312 181.367188 69.660156 180.410156 68.417969 179.394531 C 67.179688 178.375 65.992188 177.300781 64.859375 176.167969 C 63.722656 175.03125 62.648438 173.84375 61.628906 172.605469 C 60.613281 171.367188 59.660156 170.078125 58.769531 168.746094 C 57.875 167.410156 57.054688 166.039062 56.296875 164.625 C 55.542969 163.207031 54.855469 161.761719 54.242188 160.277344 C 53.628906 158.796875 53.089844 157.289062 52.625 155.753906 C 52.15625 154.21875 51.769531 152.664062 51.457031 151.09375 C 51.144531 149.519531 50.90625 147.933594 50.75 146.339844 C 50.59375 144.742188 50.515625 143.144531 50.515625 141.539062 C 50.515625 139.933594 50.59375 138.335938 50.75 136.738281 C 50.90625 135.144531 51.144531 133.558594 51.457031 131.984375 C 51.769531 130.414062 52.15625 128.859375 52.625 127.324219 C 53.089844 125.789062 53.628906 124.28125 54.242188 122.796875 C 54.855469 121.316406 55.542969 119.867188 56.296875 118.453125 C 57.054688 117.039062 57.875 115.664062 58.769531 114.332031 C 59.660156 113 60.613281 111.710938 61.628906 110.472656 C 62.648438 109.234375 63.722656 108.046875 64.859375 106.910156 C 65.992188 105.777344 67.179688 104.703125 68.417969 103.683594 C 69.660156 102.667969 70.945312 101.710938 72.277344 100.820312 C 73.613281 99.929688 74.984375 99.105469 76.402344 98.351562 C 77.816406 97.59375 79.261719 96.910156 80.746094 96.296875 C 82.226562 95.683594 83.734375 95.140625 85.269531 94.675781 C 86.804688 94.210938 88.359375 93.820312 89.929688 93.507812 C 91.503906 93.195312 93.089844 92.960938 94.683594 92.804688 C 96.28125 92.648438 97.882812 92.566406 99.484375 92.566406 L 650.515625 92.566406 C 652.117188 92.566406 653.71875 92.648438 655.316406 92.804688 C 656.910156 92.960938 658.496094 93.195312 660.066406 93.507812 C 661.640625 93.820312 663.195312 94.210938 664.730469 94.675781 C 666.265625 95.140625 667.773438 95.683594 669.253906 96.296875 C 670.738281 96.910156 672.183594 97.59375 673.597656 98.351562 C 675.011719 99.105469 676.386719 99.929688 677.722656 100.820312 C 679.054688 101.710938 680.339844 102.667969 681.582031 103.683594 C 682.820312 104.703125 684.007812 105.777344 685.140625 106.910156 C 686.277344 108.046875 687.351562 109.234375 688.371094 110.472656 C 689.386719 111.710938 690.339844 113 691.230469 114.332031 C 692.125 115.664062 692.945312 117.039062 693.703125 118.453125 C 694.457031 119.867188 695.144531 121.316406 695.757812 122.796875 C 696.371094 124.28125 696.910156 125.789062 697.375 127.324219 C 697.84375 128.859375 698.230469 130.414062 698.542969 131.984375 C 698.855469 133.558594 699.09375 135.144531 699.25 136.738281 C 699.40625 138.335938 699.484375 139.933594 699.484375 141.539062 C 699.484375 143.144531 699.40625 144.742188 699.25 146.339844 C 699.09375 147.933594 698.855469 149.519531 698.542969 151.09375 C 698.230469 152.664062 697.84375 154.21875 697.375 155.753906 C 696.910156 157.289062 696.371094 158.796875 695.757812 160.277344 C 695.144531 161.761719 694.457031 163.207031 693.703125 164.625 C 692.945312 166.039062 692.125 167.410156 691.230469 168.746094 C 690.339844 170.078125 689.386719 171.367188 688.371094 172.605469 C 687.351562 173.84375 686.277344 175.03125 685.140625 176.167969 C 684.007812 177.300781 682.820312 178.375 681.582031 179.394531 C 680.339844 180.410156 679.054688 181.367188 677.722656 182.257812 C 676.386719 183.148438 675.011719 183.972656 673.597656 184.726562 C 672.183594 185.484375 670.738281 186.167969 669.253906 186.78125 C 667.773438 187.394531 666.265625 187.933594 664.730469 188.402344 C 663.195312 188.867188 661.640625 189.253906 660.066406 189.570312 C 658.496094 189.882812 656.910156 190.117188 655.316406 190.273438 C 653.71875 190.429688 652.117188 190.507812 650.515625 190.507812 Z M 99.484375 117.777344 C 98.707031 117.777344 97.929688 117.816406 97.15625 117.894531 C 96.382812 117.96875 95.613281 118.082031 94.851562 118.234375 C 94.085938 118.386719 93.332031 118.574219 92.589844 118.800781 C 91.84375 119.027344 91.113281 119.289062 90.390625 119.585938 C 89.671875 119.886719 88.972656 120.21875 88.285156 120.582031 C 87.597656 120.949219 86.933594 121.351562 86.285156 121.78125 C 85.636719 122.214844 85.011719 122.679688 84.410156 123.171875 C 83.808594 123.664062 83.234375 124.1875 82.683594 124.738281 C 82.132812 125.289062 81.613281 125.863281 81.117188 126.464844 C 80.625 127.066406 80.160156 127.691406 79.730469 128.339844 C 79.296875 128.984375 78.898438 129.652344 78.53125 130.339844 C 78.164062 131.023438 77.832031 131.726562 77.535156 132.445312 C 77.234375 133.164062 76.972656 133.898438 76.746094 134.640625 C 76.523438 135.386719 76.332031 136.140625 76.179688 136.902344 C 76.03125 137.667969 75.914062 138.433594 75.839844 139.210938 C 75.761719 139.984375 75.726562 140.761719 75.726562 141.539062 C 75.726562 142.316406 75.761719 143.09375 75.839844 143.867188 C 75.914062 144.640625 76.03125 145.410156 76.179688 146.175781 C 76.332031 146.9375 76.523438 147.691406 76.746094 148.4375 C 76.972656 149.179688 77.234375 149.914062 77.535156 150.632812 C 77.832031 151.351562 78.164062 152.054688 78.53125 152.738281 C 78.898438 153.425781 79.296875 154.09375 79.730469 154.738281 C 80.160156 155.386719 80.625 156.011719 81.117188 156.613281 C 81.613281 157.214844 82.132812 157.789062 82.683594 158.339844 C 83.234375 158.890625 83.808594 159.414062 84.410156 159.90625 C 85.011719 160.398438 85.636719 160.863281 86.285156 161.296875 C 86.933594 161.726562 87.597656 162.125 88.285156 162.492188 C 88.972656 162.859375 89.671875 163.191406 90.390625 163.492188 C 91.113281 163.789062 91.84375 164.050781 92.589844 164.277344 C 93.332031 164.503906 94.085938 164.691406 94.851562 164.84375 C 95.613281 164.996094 96.382812 165.109375 97.15625 165.183594 C 97.929688 165.261719 98.707031 165.300781 99.484375 165.300781 L 650.515625 165.300781 C 651.292969 165.300781 652.070312 165.261719 652.84375 165.183594 C 653.617188 165.109375 654.386719 164.996094 655.148438 164.84375 C 655.914062 164.691406 656.667969 164.503906 657.410156 164.277344 C 658.15625 164.050781 658.886719 163.789062 659.605469 163.492188 C 660.328125 163.191406 661.027344 162.859375 661.714844 162.492188 C 662.402344 162.125 663.066406 161.726562 663.714844 161.296875 C 664.363281 160.863281 664.988281 160.398438 665.589844 159.90625 C 666.191406 159.414062 666.765625 158.890625 667.316406 158.339844 C 667.867188 157.789062 668.386719 157.214844 668.882812 156.613281 C 669.375 156.011719 669.839844 155.386719 670.269531 154.738281 C 670.703125 154.09375 671.101562 153.425781 671.46875 152.738281 C 671.835938 152.054688 672.167969 151.351562 672.464844 150.632812 C 672.765625 149.914062 673.027344 149.179688 673.25 148.4375 C 673.476562 147.691406 673.667969 146.9375 673.820312 146.175781 C 673.96875 145.410156 674.085938 144.640625 674.160156 143.867188 C 674.238281 143.09375 674.273438 142.316406 674.273438 141.539062 C 674.273438 140.761719 674.238281 139.984375 674.160156 139.210938 C 674.085938 138.433594 673.96875 137.667969 673.820312 136.902344 C 673.667969 136.140625 673.476562 135.386719 673.253906 134.640625 C 673.027344 133.898438 672.765625 133.164062 672.464844 132.445312 C 672.167969 131.726562 671.835938 131.023438 671.46875 130.339844 C 671.101562 129.652344 670.703125 128.984375 670.269531 128.339844 C 669.839844 127.691406 669.375 127.066406 668.882812 126.464844 C 668.386719 125.863281 667.867188 125.289062 667.316406 124.738281 C 666.765625 124.1875 666.191406 123.664062 665.589844 123.171875 C 664.988281 122.679688 664.363281 122.214844 663.714844 121.78125 C 663.066406 121.351562 662.402344 120.949219 661.714844 120.582031 C 661.027344 120.21875 660.328125 119.886719 659.605469 119.585938 C 658.886719 119.289062 658.15625 119.027344 657.410156 118.800781 C 656.667969 118.574219 655.914062 118.386719 655.148438 118.234375 C 654.386719 118.082031 653.617188 117.96875 652.84375 117.894531 C 652.070312 117.816406 651.292969 117.777344 650.515625 117.777344 Z M 99.484375 117.777344 " fill-opacity="1" fill-rule="nonzero"/></g><path fill="#000000" d="M 375 696.269531 C 374.171875 696.269531 373.351562 696.191406 372.539062 696.027344 C 371.730469 695.867188 370.941406 695.628906 370.175781 695.3125 C 369.410156 694.996094 368.683594 694.605469 367.996094 694.148438 C 367.308594 693.6875 366.671875 693.164062 366.085938 692.578125 C 365.5 691.992188 364.980469 691.355469 364.519531 690.667969 C 364.058594 689.980469 363.671875 689.253906 363.355469 688.488281 C 363.039062 687.726562 362.796875 686.9375 362.636719 686.125 C 362.476562 685.3125 362.394531 684.492188 362.394531 683.664062 L 362.394531 231.617188 C 362.394531 230.789062 362.476562 229.96875 362.636719 229.160156 C 362.796875 228.347656 363.039062 227.558594 363.355469 226.792969 C 363.671875 226.027344 364.058594 225.304688 364.519531 224.613281 C 364.980469 223.925781 365.5 223.289062 366.085938 222.703125 C 366.671875 222.121094 367.308594 221.597656 367.996094 221.136719 C 368.683594 220.675781 369.410156 220.289062 370.175781 219.972656 C 370.941406 219.65625 371.730469 219.417969 372.539062 219.253906 C 373.351562 219.09375 374.171875 219.011719 375 219.011719 C 375.828125 219.011719 376.648438 219.09375 377.460938 219.253906 C 378.269531 219.417969 379.058594 219.65625 379.824219 219.972656 C 380.589844 220.289062 381.316406 220.675781 382.003906 221.136719 C 382.691406 221.597656 383.328125 222.121094 383.914062 222.703125 C 384.5 223.289062 385.019531 223.925781 385.480469 224.613281 C 385.941406 225.304688 386.328125 226.027344 386.644531 226.792969 C 386.960938 227.558594 387.203125 228.347656 387.363281 229.160156 C 387.523438 229.96875 387.605469 230.789062 387.605469 231.617188 L 387.605469 683.664062 C 387.605469 684.492188 387.523438 685.3125 387.363281 686.125 C 387.203125 686.9375 386.960938 687.726562 386.644531 688.488281 C 386.328125 689.253906 385.941406 689.980469 385.480469 690.667969 C 385.019531 691.355469 384.5 691.992188 383.914062 692.578125 C 383.328125 693.164062 382.691406 693.6875 382.003906 694.148438 C 381.316406 694.605469 380.589844 694.996094 379.824219 695.3125 C 379.058594 695.628906 378.269531 695.867188 377.460938 696.027344 C 376.648438 696.191406 375.828125 696.269531 375 696.269531 Z M 375 696.269531 " fill-opacity="1" fill-rule="nonzero"/><path fill="#000000" d="M 497.898438 117.777344 L 252.101562 117.777344 C 251.273438 117.777344 250.453125 117.699219 249.640625 117.535156 C 248.828125 117.375 248.042969 117.136719 247.277344 116.820312 C 246.511719 116.503906 245.785156 116.113281 245.097656 115.652344 C 244.410156 115.195312 243.773438 114.671875 243.1875 114.085938 C 242.601562 113.5 242.078125 112.863281 241.621094 112.175781 C 241.160156 111.488281 240.773438 110.761719 240.457031 109.996094 C 240.136719 109.230469 239.898438 108.445312 239.738281 107.632812 C 239.578125 106.820312 239.496094 106 239.496094 105.171875 L 239.496094 44.652344 C 239.496094 43.191406 239.570312 41.730469 239.714844 40.273438 C 239.859375 38.820312 240.074219 37.375 240.363281 35.9375 C 240.648438 34.503906 241.003906 33.085938 241.433594 31.6875 C 241.859375 30.289062 242.351562 28.914062 242.910156 27.5625 C 243.472656 26.210938 244.097656 24.890625 244.789062 23.601562 C 245.480469 22.308594 246.230469 21.058594 247.046875 19.839844 C 247.859375 18.625 248.730469 17.453125 249.660156 16.324219 C 250.589844 15.191406 251.570312 14.109375 252.605469 13.074219 C 253.640625 12.042969 254.722656 11.0625 255.855469 10.132812 C 256.984375 9.207031 258.160156 8.335938 259.375 7.523438 C 260.59375 6.710938 261.847656 5.960938 263.136719 5.269531 C 264.429688 4.582031 265.75 3.957031 267.101562 3.398438 C 268.453125 2.839844 269.828125 2.347656 271.230469 1.921875 C 272.628906 1.496094 274.046875 1.144531 275.480469 0.859375 C 276.917969 0.574219 278.363281 0.359375 279.816406 0.214844 C 281.273438 0.0703125 282.734375 0 284.195312 0 L 465.804688 0 C 467.265625 0 468.726562 0.0703125 470.183594 0.214844 C 471.636719 0.359375 473.082031 0.574219 474.519531 0.859375 C 475.953125 1.144531 477.371094 1.496094 478.769531 1.921875 C 480.171875 2.347656 481.546875 2.839844 482.898438 3.398438 C 484.25 3.957031 485.570312 4.582031 486.863281 5.269531 C 488.152344 5.960938 489.40625 6.710938 490.625 7.523438 C 491.839844 8.335938 493.015625 9.207031 494.144531 10.132812 C 495.277344 11.0625 496.359375 12.042969 497.394531 13.074219 C 498.429688 14.109375 499.410156 15.191406 500.339844 16.324219 C 501.269531 17.453125 502.140625 18.625 502.953125 19.839844 C 503.769531 21.058594 504.519531 22.308594 505.210938 23.601562 C 505.902344 24.890625 506.527344 26.210938 507.089844 27.5625 C 507.648438 28.914062 508.140625 30.289062 508.566406 31.6875 C 508.996094 33.085938 509.351562 34.503906 509.636719 35.9375 C 509.925781 37.375 510.140625 38.820312 510.285156 40.273438 C 510.429688 41.730469 510.503906 43.191406 510.503906 44.652344 L 510.503906 105.171875 C 510.503906 106 510.421875 106.820312 510.261719 107.632812 C 510.101562 108.445312 509.863281 109.230469 509.542969 109.996094 C 509.226562 110.761719 508.839844 111.488281 508.378906 112.175781 C 507.921875 112.863281 507.398438 113.5 506.8125 114.085938 C 506.226562 114.671875 505.589844 115.195312 504.902344 115.652344 C 504.214844 116.113281 503.488281 116.503906 502.722656 116.820312 C 501.957031 117.136719 501.167969 117.375 500.359375 117.535156 C 499.546875 117.699219 498.726562 117.777344 497.898438 117.777344 Z M 264.707031 92.566406 L 485.292969 92.566406 L 485.292969 44.652344 C 485.292969 44.015625 485.261719 43.378906 485.199219 42.746094 C 485.136719 42.109375 485.042969 41.480469 484.917969 40.855469 C 484.792969 40.230469 484.636719 39.613281 484.449219 39.003906 C 484.265625 38.390625 484.050781 37.792969 483.804688 37.203125 C 483.5625 36.617188 483.289062 36.039062 482.988281 35.476562 C 482.683594 34.914062 482.359375 34.371094 482.003906 33.839844 C 481.648438 33.308594 481.269531 32.800781 480.863281 32.308594 C 480.457031 31.816406 480.03125 31.34375 479.578125 30.894531 C 479.125 30.441406 478.652344 30.015625 478.160156 29.613281 C 477.667969 29.207031 477.15625 28.828125 476.625 28.476562 C 476.09375 28.121094 475.546875 27.796875 474.984375 27.496094 C 474.421875 27.195312 473.847656 26.925781 473.257812 26.679688 C 472.667969 26.4375 472.066406 26.222656 471.457031 26.039062 C 470.847656 25.855469 470.226562 25.703125 469.601562 25.578125 C 468.976562 25.453125 468.347656 25.363281 467.710938 25.300781 C 467.078125 25.238281 466.441406 25.210938 465.804688 25.210938 L 284.195312 25.210938 C 283.558594 25.210938 282.921875 25.238281 282.289062 25.300781 C 281.652344 25.363281 281.023438 25.453125 280.398438 25.578125 C 279.773438 25.703125 279.152344 25.855469 278.542969 26.039062 C 277.933594 26.222656 277.332031 26.4375 276.742188 26.679688 C 276.152344 26.925781 275.578125 27.195312 275.015625 27.496094 C 274.453125 27.796875 273.90625 28.121094 273.375 28.476562 C 272.84375 28.828125 272.332031 29.207031 271.839844 29.613281 C 271.347656 30.015625 270.875 30.441406 270.421875 30.894531 C 269.96875 31.34375 269.542969 31.816406 269.136719 32.308594 C 268.730469 32.800781 268.351562 33.308594 267.996094 33.839844 C 267.640625 34.371094 267.316406 34.914062 267.011719 35.476562 C 266.710938 36.039062 266.4375 36.617188 266.195312 37.203125 C 265.949219 37.792969 265.734375 38.390625 265.550781 39.003906 C 265.363281 39.613281 265.207031 40.230469 265.082031 40.855469 C 264.957031 41.480469 264.863281 42.109375 264.800781 42.746094 C 264.738281 43.378906 264.707031 44.015625 264.707031 44.652344 Z M 264.707031 92.566406 " fill-opacity="1" fill-rule="nonzero"/><path fill="#000000" d="M 450.488281 117.777344 L 299.511719 117.777344 C 298.683594 117.777344 297.863281 117.699219 297.050781 117.535156 C 296.242188 117.375 295.453125 117.136719 294.6875 116.820312 C 293.921875 116.503906 293.195312 116.113281 292.507812 115.652344 C 291.820312 115.195312 291.183594 114.671875 290.597656 114.085938 C 290.011719 113.5 289.492188 112.863281 289.03125 112.175781 C 288.570312 111.488281 288.183594 110.761719 287.867188 109.996094 C 287.550781 109.230469 287.308594 108.445312 287.148438 107.632812 C 286.988281 106.820312 286.90625 106 286.90625 105.171875 L 286.90625 52.183594 C 286.90625 51.355469 286.988281 50.539062 287.148438 49.726562 C 287.308594 48.914062 287.550781 48.125 287.867188 47.359375 C 288.183594 46.597656 288.570312 45.871094 289.03125 45.183594 C 289.492188 44.492188 290.011719 43.855469 290.597656 43.273438 C 291.183594 42.6875 291.820312 42.164062 292.507812 41.703125 C 293.195312 41.246094 293.921875 40.855469 294.6875 40.539062 C 295.453125 40.222656 296.242188 39.984375 297.050781 39.820312 C 297.863281 39.660156 298.683594 39.578125 299.511719 39.578125 L 450.488281 39.578125 C 451.316406 39.578125 452.136719 39.660156 452.949219 39.820312 C 453.757812 39.984375 454.546875 40.222656 455.3125 40.539062 C 456.078125 40.855469 456.804688 41.246094 457.492188 41.703125 C 458.179688 42.164062 458.816406 42.6875 459.402344 43.273438 C 459.988281 43.855469 460.507812 44.492188 460.96875 45.183594 C 461.429688 45.871094 461.816406 46.597656 462.132812 47.359375 C 462.449219 48.125 462.691406 48.914062 462.851562 49.726562 C 463.011719 50.539062 463.09375 51.355469 463.09375 52.183594 L 463.09375 105.171875 C 463.09375 106 463.011719 106.820312 462.851562 107.632812 C 462.691406 108.445312 462.449219 109.230469 462.132812 109.996094 C 461.816406 110.761719 461.429688 111.488281 460.96875 112.175781 C 460.507812 112.863281 459.988281 113.5 459.402344 114.085938 C 458.816406 114.671875 458.179688 115.195312 457.492188 115.652344 C 456.804688 116.113281 456.078125 116.503906 455.3125 116.820312 C 454.546875 117.136719 453.757812 117.375 452.949219 117.535156 C 452.136719 117.699219 451.316406 117.777344 450.488281 117.777344 Z M 312.117188 92.566406 L 437.882812 92.566406 L 437.882812 64.789062 L 312.117188 64.789062 Z M 312.117188 92.566406 " fill-opacity="1" fill-rule="nonzero"/></svg>